HIERARCHY
ROOT Hips
{
	OFFSET 0.000000 0.000000 0.000000
	CHANNELS 6 Xposition Yposition Zposition Zrotation Yrotation Xrotation 
	JOINT LeftUpLeg_virtual
	{
		OFFSET 0.000000 0.000000 0.000000
		CHANNELS 3 Zrotation Yrotation Xrotation
		JOINT LeftUpLeg
		{
			OFFSET 10.205400 -3.823500 0.155100
			CHANNELS 3 Zrotation Yrotation Xrotation
			JOINT LeftLeg
			{
				OFFSET 0.708757 -12.982077 0.567790
				CHANNELS 3 Zrotation Yrotation Xrotation
				JOINT LeftFoot
				{
					OFFSET -0.708756 -10.717838 -2.184338
					CHANNELS 3 Zrotation Yrotation Xrotation
					JOINT LeftToeBase
					{
						OFFSET 0.108149 -7.191104 7.560241
						CHANNELS 3 Zrotation Yrotation Xrotation
						JOINT LeftToe_End
						{
							OFFSET 0.070230 0.081724 4.490308
							CHANNELS 3 Zrotation Yrotation Xrotation
							End Site
							{
								OFFSET 0.000000 0.000000 0.000000
							}
						}
					}
				}
			}
		}
	}
	JOINT RightUpLeg_virtual
	{
		OFFSET 0.000000 0.000000 0.000000
		CHANNELS 3 Zrotation Yrotation Xrotation
		JOINT RightUpLeg
		{
			OFFSET -10.205400 -3.823500 0.005500
			CHANNELS 3 Zrotation Yrotation Xrotation
			JOINT RightLeg
			{
				OFFSET -0.708756 -12.982134 0.610632
				CHANNELS 3 Zrotation Yrotation Xrotation
				JOINT RightFoot
				{
					OFFSET 0.708754 -10.717769 -1.945823
					CHANNELS 3 Zrotation Yrotation Xrotation
					JOINT RightToeBase
					{
						OFFSET -0.108140 -7.191069 7.372968
						CHANNELS 3 Zrotation Yrotation Xrotation
						JOINT RightToe_End
						{
							OFFSET -0.070227 0.081735 4.479403
							CHANNELS 3 Zrotation Yrotation Xrotation
							End Site
							{
								OFFSET 0.000000 0.000000 0.000000
							}
						}
					}
				}
			}
		}
	}
	JOINT Spine_virtual
	{
		OFFSET 0.000000 0.000000 0.000000
		CHANNELS 3 Zrotation Yrotation Xrotation
		JOINT Spine
		{
			OFFSET 0.000000 6.876099 0.125700
			CHANNELS 3 Zrotation Yrotation Xrotation
			JOINT Spine1
			{
				OFFSET 0.000000 5.730043 0.104720
				CHANNELS 3 Zrotation Yrotation Xrotation
				JOINT Spine1_split
				{
					OFFSET 0.000000 5.730043 0.104720
					CHANNELS 3 Zrotation Yrotation Xrotation
					JOINT Spine2
					{
						OFFSET 0.000000 5.730043 0.104720
						CHANNELS 3 Zrotation Yrotation Xrotation
						JOINT Neck_virtual
						{
							OFFSET 0.000000 0.000000 0.000000
							CHANNELS 3 Zrotation Yrotation Xrotation
							JOINT Neck
							{
								OFFSET 0.000000 10.314075 0.188496
								CHANNELS 3 Zrotation Yrotation Xrotation
								JOINT Head
								{
									OFFSET 0.000000 7.643700 -2.377400
									CHANNELS 3 Zrotation Yrotation Xrotation
									JOINT HeadTop_End
									{
										OFFSET 0.000000 43.788605 -13.619600
										CHANNELS 3 Zrotation Yrotation Xrotation
										End Site
										{
											OFFSET 0.000000 0.000000 0.000000
										}
									}
								}
							}
						}
						JOINT LeftShoulder_virtual
						{
							OFFSET 0.000000 0.000000 0.000000
							CHANNELS 3 Zrotation Yrotation Xrotation
							JOINT LeftShoulder
							{
								OFFSET 2.196100 4.412489 0.087492
								CHANNELS 3 Zrotation Yrotation Xrotation
								JOINT LeftShoulder_split
								{
									OFFSET 2.196100 4.412489 0.087492
									CHANNELS 3 Zrotation Yrotation Xrotation
									JOINT LeftArm
									{
										OFFSET 8.771219 -2.981674 -0.026999
										CHANNELS 3 Zrotation Yrotation Xrotation
										JOINT LeftForeArm
										{
											OFFSET 8.512804 0.000000 -0.000000
											CHANNELS 3 Zrotation Yrotation Xrotation
											JOINT LeftHand
											{
												OFFSET 18.484802 0.000000 -0.000000
												CHANNELS 3 Zrotation Yrotation Xrotation
												End Site
												{
													OFFSET 0.000000 0.000000 0.000000
												}
											}
										}
									}
								}
							}
						}
						JOINT RightShoulder_virtual
						{
							OFFSET 0.000000 0.000000 0.000000
							CHANNELS 3 Zrotation Yrotation Xrotation
							JOINT RightShoulder
							{
								OFFSET -2.196100 4.412496 0.070690
								CHANNELS 3 Zrotation Yrotation Xrotation
								JOINT RightShoulder_split
								{
									OFFSET -2.196100 4.412496 0.070690
									CHANNELS 3 Zrotation Yrotation Xrotation
									JOINT RightArm
									{
										OFFSET -8.771282 -2.981682 -0.094208
										CHANNELS 3 Zrotation Yrotation Xrotation
										JOINT RightForeArm
										{
											OFFSET -8.494598 0.000000 0.000000
											CHANNELS 3 Zrotation Yrotation Xrotation
											JOINT RightHand
											{
												OFFSET -18.483803 0.000000 0.000001
												CHANNELS 3 Zrotation Yrotation Xrotation
												End Site
												{
													OFFSET 0.000000 0.000000 0.000000
												}
											}
										}
									}
								}
							}
						}
					}
				}
			}
		}
	}
}
MOTION
Frames: 8
Frame Time: 0.033333
0.131987 24.873096 0.388873 -0.010775 -0.108717 0.002488 11.839999 -76.681084 -21.138044 57.843327 28.436712 -13.528533 -5.582648 -0.476418 54.727749 -25.296047 -5.702143 -11.752412 -11.324156 -1.190329 -0.119116 0.000000 0.000000 0.000000 -97.378685 -87.585960 96.160294 -47.367893 -17.805239 -33.546242 28.684433 -11.177988 75.057755 26.256332 -5.108093 -36.367271 -11.986511 2.777359 -2.314942 0.000000 0.000000 0.000000 -10.270070 -80.177185 7.821625 -0.561677 0.148926 3.227654 -5.547506 -0.364476 3.971528 -0.128933 2.720626 -0.357299 -0.009869 0.018492 -0.036024 -2.944772 0.085947 3.241416 0.501967 -3.868731 0.437087 10.418241 41.468689 -2.237240 0.000000 0.000000 0.000000 -4.853550 2.986795 8.276483 -16.534824 -9.188213 -1.424842 9.244209 2.273284 -1.178200 16.163717 -16.665747 -43.825962 0.674421 -21.369350 -5.989486 0.000000 0.000000 0.000000 -1.521705 5.477767 3.991169 1.415742 15.429922 -0.237232 -6.394944 -4.933282 -0.256454 72.177284 59.901623 54.812424 0.627355 63.657742 0.954795 0.000000 0.000000 0.000000 
0.171226 24.935232 0.247868 -0.021051 -0.004778 0.138904 12.620119 -77.508392 -22.024570 57.861698 27.890760 -13.015881 -4.956570 -0.746359 54.225243 -24.587000 -5.698503 -11.672526 -9.804764 -2.056539 0.365550 0.000000 0.000000 0.000000 -113.520905 -87.581512 111.914001 -47.463257 -17.791250 -33.269238 29.165651 -11.519584 74.601715 26.166067 -4.973935 -36.365669 -12.461733 3.019705 -2.043207 0.000000 0.000000 0.000000 -10.868443 -80.752899 7.954407 -0.666882 -0.113660 3.080808 -5.427261 -0.333401 3.912847 0.108090 2.783833 -0.448036 0.014809 -0.011228 -0.005276 -2.893122 0.183783 3.164585 0.472028 -3.823657 0.420372 10.630302 41.376789 -1.990472 0.000000 0.000000 0.000000 -4.840034 3.219067 8.299602 -16.747297 -9.090604 -1.304496 8.182101 2.380477 -0.237596 15.341617 -15.842299 -42.640751 0.809050 -23.411127 -6.499193 0.000000 0.000000 0.000000 -1.413548 5.382095 4.059767 1.312878 15.383831 -0.063354 -6.352748 -4.523679 -1.154317 70.122597 59.295464 52.539780 0.550303 63.633774 0.876623 0.000000 0.000000 0.000000 
0.265560 25.108559 0.122759 -0.121717 -0.010367 0.106079 13.082966 -78.613441 -22.571806 58.144337 27.143478 -11.325298 -3.928761 -0.773767 52.933472 -24.448452 -5.743726 -11.046626 -9.496942 -2.416552 1.272136 0.000000 0.000000 0.000000 -129.962875 -87.125259 127.717918 -47.211430 -17.671535 -33.247128 29.752432 -12.104840 73.665924 24.986645 -5.194890 -35.157555 -13.287315 4.042156 -1.669565 0.000000 0.000000 0.000000 -12.939496 -81.514061 9.495562 -0.708883 -0.248828 2.993384 -5.098831 -0.242012 3.883662 0.267353 2.843460 -0.463394 0.022742 0.015721 -0.017877 -2.742682 0.236489 3.140998 0.428274 -3.832254 0.492604 10.259194 42.424751 -2.084525 0.000000 0.000000 0.000000 -4.366075 3.399819 8.435807 -17.527796 -9.186832 -0.942968 7.278879 2.009173 0.413059 12.469548 -14.649839 -40.698662 0.642271 -26.038792 -5.121845 0.000000 0.000000 0.000000 -1.237186 5.151708 4.456020 2.169964 15.217232 0.374437 -6.895457 -2.734872 -1.746910 66.465500 58.085304 48.042568 0.471635 63.640503 0.789300 0.000000 0.000000 0.000000 
0.352222 25.362425 0.024893 0.000548 -0.022069 -0.049587 13.124862 -79.787476 -23.382376 58.267704 26.677303 -9.216093 -1.898980 -0.815286 51.112850 -24.763903 -6.484529 -9.895685 -9.035991 -2.839059 1.476626 0.000000 0.000000 0.000000 -136.366898 -86.520523 133.363327 -46.783192 -17.651560 -32.897312 30.121368 -12.467377 72.173691 23.482683 -5.403300 -33.848568 -14.222614 5.362803 -0.958128 0.000000 0.000000 0.000000 -15.338927 -82.258652 11.057540 -0.730404 -0.334842 2.852834 -4.654327 -0.248684 3.841979 0.301625 2.767766 -0.442719 -0.008659 -0.009211 -0.004211 -2.337028 0.288276 3.178122 0.155742 -3.727485 0.558433 9.517135 44.518036 -2.485826 0.000000 0.000000 0.000000 -3.463359 3.527749 8.585076 -18.906954 -9.631699 -0.698657 6.713767 1.846122 0.368061 7.759740 -14.195396 -37.075619 0.022794 -29.653576 -2.005530 0.000000 0.000000 0.000000 -0.908911 4.687071 5.082513 3.973678 14.998994 1.174247 -8.076495 -0.589020 -2.199923 63.269760 56.054501 43.705044 0.537107 63.638756 0.848027 0.000000 0.000000 0.000000 
0.418763 25.660864 -0.026405 0.201215 0.024613 -0.075030 12.845598 -80.943489 -23.735506 58.462646 26.073824 -7.155448 -0.450555 -0.562402 49.416782 -24.693085 -6.921417 -9.587118 -10.822355 -3.303403 3.451963 0.000000 0.000000 0.000000 -139.998428 -86.066566 136.271149 -46.194252 -17.023537 -32.299179 30.197374 -12.552323 70.287926 22.501339 -5.817717 -32.924652 -14.235702 5.734187 0.131101 0.000000 0.000000 0.000000 -17.299355 -82.677254 11.954372 -0.630523 -0.424033 2.839694 -3.975665 -0.313291 3.950443 0.324244 2.593968 -0.409812 0.017809 0.006046 -0.003822 -2.010376 0.213646 3.299504 -0.108023 -3.580608 0.632102 8.243396 47.353928 -3.328192 0.000000 0.000000 0.000000 -2.276480 3.538229 8.860229 -20.892973 -10.821757 -0.217482 6.251734 2.352156 -0.276413 2.048135 -15.284698 -31.431419 -0.718280 -34.248169 2.127700 0.000000 0.000000 0.000000 -0.651138 4.044152 5.621038 6.471237 14.663424 2.046029 -9.285954 1.012194 -2.065326 60.237415 53.668381 39.755241 0.142258 63.645367 0.456149 0.000000 0.000000 0.000000 
0.442856 25.986591 -0.025731 0.191756 -0.010022 -0.092377 11.063929 -81.320076 -22.387712 58.487514 26.005548 -6.132830 0.460716 -0.423336 48.075920 -25.541386 -6.800038 -8.631282 -17.929619 -3.000878 4.602252 0.000000 0.000000 0.000000 -137.725449 -85.936096 133.534653 -45.365673 -16.048759 -30.870537 29.396013 -12.187860 68.476471 22.034250 -6.234284 -32.826180 -14.114767 5.488729 1.145352 0.000000 0.000000 0.000000 -18.323496 -82.712631 12.268861 -0.585229 -0.565364 2.935326 -3.252587 -0.501629 4.248401 0.194621 2.283282 -0.407449 -0.002409 0.003100 0.125220 -1.582379 0.222690 3.419487 -0.375858 -3.094960 0.565371 6.488930 50.493340 -4.651622 0.000000 0.000000 0.000000 -0.846994 3.453505 9.053770 -23.045347 -12.891306 0.412118 5.481141 3.795846 -1.384077 -3.900016 -18.765713 -23.229912 -1.555483 -40.670982 6.104096 0.000000 0.000000 0.000000 -0.416495 3.310050 5.899546 9.267262 14.249792 2.762374 -9.783886 1.620699 -2.073997 57.631878 51.198818 36.345009 0.483942 63.658875 0.805700 0.000000 0.000000 0.000000 
0.384299 26.316481 0.024980 0.041476 0.003433 0.011061 9.859186 -80.791084 -21.613705 58.297337 26.059784 -6.048368 0.577994 0.163781 47.060455 -25.942122 -6.040614 -7.255855 -16.885483 -2.890899 5.390831 0.000000 0.000000 0.000000 -135.718994 -86.056030 131.400299 -44.514317 -14.242608 -29.331202 28.034449 -11.494549 66.526299 23.677729 -6.570387 -33.358318 -11.770370 2.326483 1.367924 0.000000 0.000000 0.000000 -18.369564 -82.482681 11.910612 -0.507695 -0.789133 3.067858 -2.422476 -0.822601 4.610914 0.108487 1.910391 -0.454152 0.059257 -0.003573 0.012364 -1.227405 -0.217537 3.689320 -0.584247 -2.794236 0.523767 5.014673 53.816246 -5.394985 0.000000 0.000000 0.000000 0.414119 3.093330 9.340794 -24.277512 -15.649486 1.240710 4.492266 5.649458 -2.270303 -9.289322 -25.162252 -13.141781 -2.242845 -49.692825 9.095008 0.000000 0.000000 0.000000 -0.234124 2.473676 6.014697 11.821882 13.682861 3.342699 -9.484386 1.336406 -1.829824 54.488602 48.571579 32.792015 0.339608 63.619308 0.649830 0.000000 0.000000 0.000000 
0.307502 26.607813 0.125452 0.187979 0.040498 0.032659 8.784265 -79.684921 -20.737383 57.939133 26.372080 -6.469752 -0.318921 1.275147 46.244064 -26.594311 -4.872890 -5.936770 -12.466794 0.299442 7.293077 0.000000 0.000000 0.000000 -129.914185 -86.399666 125.783607 -43.651070 -12.302080 -28.045555 25.758318 -10.602842 64.888000 26.579020 -6.563497 -34.501949 -6.953819 -1.673203 1.437584 0.000000 0.000000 0.000000 -17.326584 -81.947357 10.710133 -0.592572 -0.958542 3.034691 -1.716248 -1.260518 4.890899 0.032084 1.529794 -0.518440 -0.010721 0.008970 0.077753 -0.843944 -0.737930 3.912592 -0.737512 -2.218351 0.341073 3.743903 57.333214 -5.773265 0.000000 0.000000 0.000000 1.438081 2.471502 9.793245 -23.573038 -18.732512 1.984674 3.917328 6.833276 -2.640010 -13.084125 -34.781075 -3.621232 -2.325506 -60.106018 10.388358 0.000000 0.000000 0.000000 -0.261279 1.631444 5.957169 14.168886 12.988845 3.732121 -8.537316 0.454627 -2.117185 50.997135 45.248665 28.707588 0.483653 63.679688 0.797912 0.000000 0.000000 0.000000 
